<svg xmlns="http://www.w3.org/2000/svg" viewBox="0 0 82.33 75.39"><defs><style>.cls-1{fill:#cccccd;}</style></defs><g id="Layer_2" data-name="Layer 2"><g id="Layer_1-2" data-name="Layer 1"><path class="cls-1" d="M0,36.54c.22-1.45.38-2.91.66-4.35a35.57,35.57,0,0,1,9.75-18.54A35.45,35.45,0,0,1,28.85,3.53a49.71,49.71,0,0,1,5-.71,2.24,2.24,0,0,1,2.47,2.1,8.81,8.81,0,0,1,0,.89q0,15.87,0,31.76a3.35,3.35,0,0,0,1.07,2.56Q48.7,51.4,60,62.71a3.9,3.9,0,0,1,1,1.67,2.08,2.08,0,0,1-.88,2.18,35.39,35.39,0,0,1-16.93,8.18c-11.36,2-21.59-.63-30.43-8.1a35.54,35.54,0,0,1-12-20.29c-.27-1.3-.37-2.64-.56-4,0-.23-.11-.46-.16-.69Z"/><path class="cls-1" d="M40.67,18.06V2.71c0-2,.92-2.85,2.93-2.69A35.54,35.54,0,0,1,63.85,8.26a34.92,34.92,0,0,1,11.69,18,54.43,54.43,0,0,1,1.3,7.32c.23,1.7-.77,2.68-2.48,2.68H43.18a2.25,2.25,0,0,1-2.5-2.47Q40.67,25.9,40.67,18.06Z"/><path class="cls-1" d="M65.81,40.94H80a2.32,2.32,0,0,1,2.36,2.78,36.3,36.3,0,0,1-6.67,18.32C75,63,74.2,64,73.42,64.9a2.21,2.21,0,0,1-3.1.28,4.91,4.91,0,0,1-.48-.43Q60,55,50.23,45.13a3.65,3.65,0,0,1-.85-1.32,2.17,2.17,0,0,1,1.56-2.74A5.45,5.45,0,0,1,52.22,41Z"/></g></g></svg>