<svg xmlns="http://www.w3.org/2000/svg" viewBox="0 0 97.81 97.87"><defs><style>.cls-1{fill:#cccccd;}</style></defs><g id="Layer_2" data-name="Layer 2"><g id="Layer_1-2" data-name="Layer 1"><path class="cls-1" d="M0,80.93A16.86,16.86,0,1,1,16.79,97.87,16.82,16.82,0,0,1,0,80.93ZM8.43,81c0,1.4,0,2.81,0,4.21a4,4,0,0,0,6.05,3.61q4.65-2.56,9.23-5.27a2.84,2.84,0,0,0,0-5.11c-3.06-1.79-6.13-3.56-9.23-5.27a4,4,0,0,0-6,3.5C8.4,78.12,8.43,79.56,8.43,81Z"/><path class="cls-1" d="M27,63.49A20.49,20.49,0,0,0,0,69.7V68.55c0-5.34,0-10.68,0-16A17.54,17.54,0,0,1,12.1,36a2,2,0,0,1,2.44,2.24c-.87,4-1.74,7.94-2.66,11.9A1.72,1.72,0,0,0,12.42,52c2.05,2,4,4,6.14,6.12,1.42-1.43,2.82-2.81,4.18-4.21.89-.92,2.18-1.76,2.5-2.87s-.38-2.43-.65-3.66c-.67-3.08-1.37-6.16-2-9.24C22.31,37,23.87,35.49,24.9,36a46,46,0,0,1,5,2.61,6.1,6.1,0,0,1,2.79,3.73c.53,1.82,1.74,3.45,2.72,5.31A21,21,0,0,0,27,63.49Z"/><path class="cls-1" d="M82.23,76a5.08,5.08,0,0,0,0,6.73,5.07,5.07,0,0,0,0,6.73,5.17,5.17,0,0,0-1.07,4.86,86.51,86.51,0,0,1-9.81-.1c-1.83-.21-3.54-1.44-5.27-2.26-.19-.09-.3-.53-.3-.8q0-10.22,0-20.44a1.3,1.3,0,0,1,.49-.92,23.18,23.18,0,0,1,6.27-3.34A11.72,11.72,0,0,0,81,54.74c0-.74,0-1.47,0-2.21a1.7,1.7,0,0,1,2-1.88,5,5,0,0,1,4.71,4.44,9.61,9.61,0,0,1-.36,3.2c-.91,3-1.94,5.92-2.94,8.87a1.9,1.9,0,0,1-.6.92C80.63,70.19,80.11,72.73,82.23,76Z"/><path class="cls-1" d="M62.31,91.1H34.39A20.8,20.8,0,0,0,37.09,81,20.54,20.54,0,0,0,34.4,71H62.31Z"/><path class="cls-1" d="M59,23.56c-4.13.63-7.37-.94-10.12-3.94a10.41,10.41,0,0,1-10,3.95v1.24c0,3.9,0,7.8,0,11.7A7,7,0,0,0,42.17,43a.92.92,0,0,1,.39.7,1,1,0,0,1-.53.64c-.93.4-1.88.77-2.84,1.08a1,1,0,0,1-.81-.16,7.78,7.78,0,0,1-2.93-5.85c-.08-5-.11-10,0-15C35.59,18,41.61,12,48.07,11.86A13.49,13.49,0,0,1,62.29,23.5a6,6,0,0,1,.09.84c0,5,.06,10,0,15.06a7.67,7.67,0,0,1-2.87,5.77,1.37,1.37,0,0,1-1.08.13,16.22,16.22,0,0,1-2.35-.89,1.62,1.62,0,0,1-.8-.77c-.06-.19.31-.61.57-.79A6.64,6.64,0,0,0,59,37.22c.06-4.35,0-8.71,0-13.06C59,24,59,23.89,59,23.56Z"/><path class="cls-1" d="M97.77,67.59h-10c.15-.57.25-1,.38-1.4.92-2.94,2-5.83,2.72-8.82a8.34,8.34,0,0,0-4.77-9.3,1.82,1.82,0,0,1-.89-1c-.71-3-1.34-5.95-2-8.93A2.06,2.06,0,0,1,85.68,36,17.57,17.57,0,0,1,97.79,52.39c0,4.82,0,9.63,0,14.45C97.8,67.11,97.78,67.39,97.77,67.59Z"/><path class="cls-1" d="M46.35,67.51H32.6a2.88,2.88,0,0,1-2.24-2,17.67,17.67,0,0,1,12-17.76c.5-.16,1-.51,1.51.13s1.37,1,1.08,2.24c-1,3.87-1.76,7.78-2.66,11.67a1.67,1.67,0,0,0,.5,1.85c1.27,1.15,2.47,2.39,3.7,3.59Z"/><path class="cls-1" d="M51.11,67.51c1.48-1.45,2.69-2.7,4-3.87a1.59,1.59,0,0,0,.5-1.76c-.91-4-1.79-8-2.67-12a2.06,2.06,0,0,1,2.43-2.17A17.64,17.64,0,0,1,67.46,64.13a1.49,1.49,0,0,1-.65,1.28,9,9,0,0,1-7,2.14c-2.44-.2-4.91,0-7.36,0Z"/><path class="cls-1" d="M5.15,12.58a7,7,0,0,1,5.1-7.48,2.47,2.47,0,0,0,1.3-.88C13.39,1.11,16.08-.07,19.66,0,24.37.11,28,1.91,30.45,5.94A10.88,10.88,0,0,1,32,12.5C26.58,12,21.46,10.24,16.27,8.75a6,6,0,0,0-6.81,2.54,1.47,1.47,0,0,1-.74.62C7.54,12.18,6.34,12.37,5.15,12.58Z"/><path class="cls-1" d="M92.73,12.52a55.38,55.38,0,0,1-5.54-.84c-3.35-.85-6.66-1.9-10-2.86a6,6,0,0,0-7.07,2.53,1.52,1.52,0,0,1-.78.57c-1.15.26-2.31.44-3.48.66-.58-3,1.64-6.43,5-7.41a2.69,2.69,0,0,0,1.68-1.26A7.78,7.78,0,0,1,79.7,0C84.11,0,87.76,1.28,90.45,4.86A11.33,11.33,0,0,1,92.73,12.52Z"/><path class="cls-1" d="M25.29,14.84c0,3.71,0,7.32,0,10.93a3.07,3.07,0,0,1-2.81,2.94c-2.59.11-5.19.11-7.78,0a3.12,3.12,0,0,1-2.86-3.12q0-5.52,0-11A2.61,2.61,0,0,1,15,11.91C18.45,12.79,21.85,13.85,25.29,14.84Z"/><path class="cls-1" d="M86,14.84c0,3.7,0,7.31,0,10.92a3.07,3.07,0,0,1-2.7,2.93c-2.66.12-5.33.12-8,0a3.1,3.1,0,0,1-2.76-3.09c0-3.69,0-7.37,0-11.06a2.6,2.6,0,0,1,3.17-2.64C79.15,12.78,82.55,13.85,86,14.84Z"/><path class="cls-1" d="M70.78,63.49a21.2,21.2,0,0,0-8.71-16.11,12.38,12.38,0,0,0,3.53-6.63,1.5,1.5,0,0,1,.48-.66A17.34,17.34,0,0,1,73,35.93c1-.34,2.55,1.06,2.32,2.12q-1.32,6-2.69,12.1a1.62,1.62,0,0,0,.5,1.76c1.28,1.2,2.46,2.51,3.75,3.7a1.53,1.53,0,0,1,.47,1.76A8.68,8.68,0,0,1,70.78,63.49Z"/><path class="cls-1" d="M42.17,27a13.3,13.3,0,0,0,6.34-2.42.87.87,0,0,1,.8,0A13.51,13.51,0,0,0,55.65,27v1.88c0,2.7,0,5.41,0,8.11a3.32,3.32,0,0,1-3.53,3.57c-2.21,0-4.42,0-6.63,0a3.25,3.25,0,0,1-3.28-3C42.13,34.06,42.17,30.56,42.17,27Z"/><path class="cls-1" d="M47.88,52l1,.88L49.93,52l1.25,5.46c.27,1.19.57,2.38.76,3.59a1.76,1.76,0,0,1-.34,1.28c-.8.93-1.7,1.77-2.66,2.73-1-1-2.06-2-3-3a.72.72,0,0,1-.12-.58C46.45,58.34,47.15,55.23,47.88,52Z"/><path class="cls-1" d="M17.52,40.23l1,.9,1-.88,1.05,4.56c.34,1.5.69,3,1,4.51a1.6,1.6,0,0,1-.27,1.2c-.82.95-1.75,1.82-2.72,2.8-1.05-1-2.07-2-3.07-3a.76.76,0,0,1-.11-.58C16.1,46.59,16.8,43.49,17.52,40.23Z"/><path class="cls-1" d="M91,74.25c-1.61,0-3.23,0-4.84,0a1.69,1.69,0,1,1,0-3.36q4.85,0,9.69,0c1.18,0,1.88.63,1.9,1.65s-.7,1.7-1.94,1.71C94.25,74.26,92.63,74.25,91,74.25Z"/><path class="cls-1" d="M91.11,77.64c1.62,0,3.24,0,4.85,0a1.65,1.65,0,0,1,1.84,1.7A1.63,1.63,0,0,1,96,81q-5,0-9.91,0a1.68,1.68,0,1,1,0-3.35C87.81,77.62,89.46,77.64,91.11,77.64Z"/><path class="cls-1" d="M91.11,84.38c1.62,0,3.24,0,4.85,0a1.65,1.65,0,0,1,1.84,1.7A1.63,1.63,0,0,1,96,87.74q-5,0-9.91,0a1.68,1.68,0,1,1,0-3.35C87.81,84.37,89.46,84.38,91.11,84.38Z"/><path class="cls-1" d="M91.06,94.49c-1.58,0-3.16,0-4.74,0-1.27,0-2-.6-2-1.65s.7-1.7,2-1.71h9.59c1.24,0,2,.65,1.94,1.71s-.73,1.65-2,1.65C94.22,94.5,92.64,94.49,91.06,94.49Z"/><path class="cls-1" d="M80.3,40.28l1.56,7a5.25,5.25,0,0,0-4.18,4.13c-1.32-.57-1.67-1.2-1.37-2.53.62-2.83,1.24-5.66,1.9-8.63l1.05.82Z"/><path class="cls-1" d="M8.39,15.29v6.64a3.19,3.19,0,0,1-3.31-2.84C4.88,17.07,6.1,15.61,8.39,15.29Z"/><path class="cls-1" d="M28.72,15.29C30.94,15.59,32.16,17,32,19a3.2,3.2,0,0,1-3.31,3Z"/><path class="cls-1" d="M69.07,22a3.23,3.23,0,0,1-3.29-3,3.33,3.33,0,0,1,3.29-3.63Z"/><path class="cls-1" d="M89.41,22V15.39a3.18,3.18,0,0,1,3.33,3.12A3.25,3.25,0,0,1,89.41,22Z"/><path class="cls-1" d="M18.53,36.82c-1.09-1.21-2-2.11-2.75-3.1a1.63,1.63,0,0,1-.17-1.2c0-.17.51-.37.79-.38q2.16-.06,4.32,0c.28,0,.72.2.78.4a1.39,1.39,0,0,1-.1,1.12C20.58,34.66,19.67,35.58,18.53,36.82Z"/><path class="cls-1" d="M79.2,36.83c-1.09-1.22-2-2.17-2.82-3.23-.24-.32-.12-.92-.16-1.44H82A1.21,1.21,0,0,1,81.8,34C81,34.8,80.23,35.7,79.2,36.83Z"/><path class="cls-1" d="M48.94,48.48c-1-1.08-1.73-1.94-2.54-2.71-.6-.56-.85-1.08-.32-1.83h5.63c.51.69.36,1.22-.25,1.8C50.62,46.53,49.89,47.43,48.94,48.48Z"/></g></g></svg>