<svg xmlns="http://www.w3.org/2000/svg" viewBox="0 0 81.75 81.76"><defs><style>.cls-1{fill:#cccccd;}</style></defs><g id="Layer_2" data-name="Layer 2"><g id="Layer_1-2" data-name="Layer 1"><path class="cls-1" d="M0,38.32V33.21c.12-.91.22-1.84.37-2.75A35.3,35.3,0,0,1,8.73,12.34,35.07,35.07,0,0,1,29.13.63C30.49.37,31.85.21,33.21,0h5.11c1.1.16,2.2.29,3.3.49a35.27,35.27,0,0,1,24,15.63,34.91,34.91,0,0,1,5.7,16c.15,1.35.15,2.73.23,4.16H70.46c-6.31,0-12.61,0-18.92,0a14.8,14.8,0,0,0-12.47,6.23,15.06,15.06,0,0,0-2.82,9.13v20c-1.92-.16-3.73-.21-5.5-.46a35.15,35.15,0,0,1-20-9.88,34.91,34.91,0,0,1-10.11-19C.38,41,.21,39.66,0,38.32Zm33.37-5H20.52A2.34,2.34,0,0,0,18,35.84c0,1.4,1.07,2.3,2.7,2.3H35.15c2.11,0,3-.9,3-3V16.85c0-1.33,0-2.66,0-4a2.41,2.41,0,0,0-1.82-2.5,2.36,2.36,0,0,0-3,2.45c0,4.69,0,9.37,0,14.05C33.36,29,33.37,31.11,33.37,33.37Z"/><path class="cls-1" d="M41,64.88V51.39A10.06,10.06,0,0,1,51.36,41h20A10.11,10.11,0,0,1,81.7,49.92a8.84,8.84,0,0,1,0,1.36c0,5,0,10.06,0,15.09A10.07,10.07,0,0,1,71.51,76.63c-6.31,0-12.62,0-18.92,0a2.62,2.62,0,0,0-1.32.41c-2,1.31-4,2.66-6,4A2.5,2.5,0,0,1,41,78.85C41.06,74.19,41,69.54,41,64.88ZM61.4,56.07c2.55,0,5.1,0,7.65,0a2.29,2.29,0,0,0,2.37-1.94c.27-1.6-.82-2.78-2.64-2.79q-7.37,0-14.75,0a3.43,3.43,0,0,0-1.24.2,2.35,2.35,0,0,0,.87,4.52C56.24,56.08,58.82,56.07,61.4,56.07Zm-5,5.54H53.63a2.32,2.32,0,0,0-2.28,2.3,2.22,2.22,0,0,0,2.16,2.38c1.88.06,3.77.06,5.65,0a2.24,2.24,0,0,0,2.19-2.43A2.29,2.29,0,0,0,59,61.61C58.17,61.59,57.29,61.61,56.41,61.61Z"/></g></g></svg>