<svg xmlns="http://www.w3.org/2000/svg" viewBox="0 0 73.03 73.02"><defs><style>.cls-1{fill:#cccccd;}</style></defs><g id="Layer_2" data-name="Layer 2"><g id="Layer_1-2" data-name="Layer 1"><path class="cls-1" d="M0,36.44V8.71A8.38,8.38,0,0,1,8.73,0H64.29A8.38,8.38,0,0,1,73,8.71V64.35A8.38,8.38,0,0,1,64.34,73H8.69A8.38,8.38,0,0,1,0,64.35Zm44.84-14H58.78a2.82,2.82,0,0,0,2.71-1.6A2.61,2.61,0,0,0,61.2,18a3,3,0,0,0-2.62-1.14H31.32c-.21,0-.42,0-.62,0a2.85,2.85,0,0,0-2.59,2.46,2.74,2.74,0,0,0,1.7,2.88,4.39,4.39,0,0,0,1.53.26C35.84,22.48,40.34,22.47,44.84,22.47Zm0,16.85H58.66a2.92,2.92,0,0,0,2.93-1.8A2.81,2.81,0,0,0,58.8,33.7c-3.86,0-7.72,0-11.58,0H31.27a3,3,0,0,0-2.61,1.16,2.61,2.61,0,0,0-.25,2.89,2.82,2.82,0,0,0,2.72,1.58Zm0,16.85H58.8a2.79,2.79,0,0,0,2.69-1.61,2.61,2.61,0,0,0-.3-2.89,3,3,0,0,0-2.62-1.13H31.13a2.87,2.87,0,0,0-2.84,1.81,2.81,2.81,0,0,0,2.8,3.81C35.71,56.19,40.33,56.17,44.94,56.17ZM16.92,14c-.9,0-1.81,0-2.71,0a2.84,2.84,0,0,0-3,3c0,1.75,0,3.51,0,5.26a2.85,2.85,0,0,0,3,3q2.67,0,5.34,0a2.84,2.84,0,0,0,2.93-2.94q0-2.67,0-5.34a2.86,2.86,0,0,0-3-2.95Zm0,16.85c-.93,0-1.86,0-2.8,0a2.81,2.81,0,0,0-2.87,2.89q0,2.72,0,5.43a2.82,2.82,0,0,0,2.88,2.9c1.8,0,3.62,0,5.43,0a2.83,2.83,0,0,0,2.92-2.94q0-2.67,0-5.34a2.86,2.86,0,0,0-2.93-3C18.67,30.87,17.79,30.89,16.91,30.89Zm0,16.85c-.93,0-1.87,0-2.8,0a2.81,2.81,0,0,0-2.85,2.83c0,1.84,0,3.68,0,5.52A2.8,2.8,0,0,0,14.05,59q2.81.06,5.61,0a2.79,2.79,0,0,0,2.8-2.79c.05-1.86,0-3.73,0-5.6a2.82,2.82,0,0,0-2.85-2.83C18.7,47.72,17.8,47.74,16.89,47.74Z"/></g></g></svg>